<svg width="28" height="29" viewBox="0 0 28 29" fill="none" xmlns="http://www.w3.org/2000/svg">
<path d="M27.5436 15.9866L27.1158 15.4019C26.6523 14.7602 26.6452 13.9046 27.1016 13.2628L27.5151 12.6781C28.1568 11.7797 27.8574 10.5248 26.8805 10.0043L26.2388 9.66205C25.54 9.29128 25.1693 8.51408 25.2976 7.73688L25.4188 7.02386C25.6042 5.93293 24.7914 4.92756 23.6862 4.88478L22.966 4.85626C22.1817 4.82061 21.4972 4.29297 21.2833 3.53003L21.0836 2.83127C20.777 1.76886 19.6148 1.21983 18.5952 1.65478L17.9321 1.93999C17.2048 2.25372 16.3705 2.06833 15.8358 1.47652L15.358 0.941752C14.6236 0.121773 13.333 0.136033 12.6129 0.963143L12.1423 1.50504C11.6218 2.09685 10.7875 2.2965 10.0603 1.99703L9.39001 1.72608C8.37038 1.30539 7.20815 1.87582 6.92294 2.93822L6.73042 3.63699C6.52364 4.39279 5.8534 4.93469 5.06194 4.98461L4.34179 5.02739C3.24373 5.09156 2.44514 6.10406 2.64479 7.18785L2.77313 7.89375C2.91574 8.67095 2.54496 9.44814 1.86046 9.82605L1.22587 10.1754C0.263282 10.7102 -0.0147977 11.9723 0.634055 12.8635L1.06187 13.4482C1.52534 14.0899 1.53247 14.9456 1.07613 15.5873L0.662576 16.172C0.0208536 17.0704 0.320324 18.3253 1.29717 18.8458L1.93889 19.1881C2.63766 19.5588 3.00843 20.336 2.88009 21.1132L2.75887 21.8263C2.57348 22.9172 3.38633 23.9226 4.49152 23.9653L5.21168 23.9939C5.99601 24.0295 6.68051 24.5572 6.89442 25.3201L7.09406 26.0189C7.40067 27.0813 8.5629 27.6303 9.58252 27.1953L10.2456 26.9101C10.9729 26.5964 11.8072 26.7818 12.3419 27.3736L12.8197 27.9084C13.5541 28.7283 14.8447 28.7212 15.5719 27.887L16.0425 27.3451C16.563 26.7533 17.3973 26.5536 18.1246 26.8531L18.7948 27.124C19.8144 27.5447 20.9767 26.9743 21.2619 25.9119L21.4473 25.2131C21.654 24.4573 22.3243 23.9154 23.1157 23.8655L23.8359 23.8227C24.934 23.7586 25.7325 22.7461 25.5329 21.6623L25.4046 20.9564C25.2619 20.1792 25.6327 19.402 26.3172 19.0241L26.9518 18.6747C27.9144 18.1328 28.1925 16.8779 27.5436 15.9866ZM17.49 19.1025C16.9695 19.73 16.2992 20.1507 15.5149 20.3717C15.1726 20.4644 15.0158 20.6426 15.0372 20.9992C15.0514 21.3485 15.0372 21.6979 15.0372 22.0473C15.0372 22.361 14.8803 22.525 14.5666 22.5322C14.1887 22.5464 13.8108 22.5464 13.44 22.5322C13.112 22.525 12.9551 22.3396 12.948 22.0188C12.9409 21.7621 12.9409 21.5054 12.9409 21.2558C12.9337 20.6926 12.9195 20.6712 12.3776 20.5856C11.6788 20.4786 11.0014 20.3146 10.3669 20.008C9.86773 19.7656 9.81782 19.6444 9.96043 19.1168C10.0674 18.7317 10.1743 18.3324 10.2955 17.9545C10.4382 17.5125 10.5594 17.4554 10.9658 17.6622C11.6646 18.0258 12.4132 18.2326 13.1976 18.3324C13.6967 18.3966 14.1958 18.3467 14.6664 18.1399C15.5363 17.7549 15.6789 16.7495 14.9373 16.1435C14.6878 15.9367 14.4026 15.7869 14.1031 15.6515C13.3402 15.3163 12.5416 15.0597 11.8214 14.6247C10.6521 13.9259 9.91051 12.9634 9.99608 11.5373C10.0959 9.92587 11.0086 8.92764 12.4774 8.38574C13.0906 8.1647 13.0906 8.17183 13.0906 7.53724V6.89551C13.1049 6.41779 13.1833 6.33222 13.661 6.31796C13.8108 6.31083 13.9605 6.31796 14.1031 6.31796C15.1156 6.31796 15.1156 6.31796 15.1227 7.33046C15.1299 8.05061 15.1227 8.05774 15.8429 8.1647C16.3919 8.25026 16.9124 8.41426 17.4258 8.63529C17.7039 8.76364 17.8108 8.95616 17.7253 9.2485C17.5969 9.69057 17.4828 10.1326 17.3402 10.5676C17.2119 10.9811 17.0764 11.0382 16.6771 10.8457C15.8857 10.4606 15.0514 10.3038 14.1744 10.3466C13.9462 10.3608 13.7181 10.3893 13.5042 10.482C12.7484 10.81 12.62 11.6514 13.2689 12.1648C13.5969 12.4286 13.9676 12.614 14.3598 12.778C15.03 13.0561 15.7074 13.3199 16.342 13.6764C18.3741 14.8101 18.916 17.3627 17.49 19.1025Z" fill="#1123FF"/>
</svg>
