<svg width="42" height="42" viewBox="0 0 42 42" fill="none" xmlns="http://www.w3.org/2000/svg">
<g clip-path="url(#clip0)">
<path d="M41.5335 17.4988L21.0202 41.6904V41.5489L0.648438 17.4988L9.70257 8.58618H32.4794L41.5335 17.4988Z" fill="#28E6E6"/>
<path d="M41.5338 17.4988L21.0205 41.6904V8.58618H32.4796L41.5338 17.4988Z" fill="#00CEF5"/>
<path d="M27.9522 17.4988H14.2295L21.0201 8.86912V8.58618L27.9522 17.4988Z" fill="#C4FEFF"/>
<path d="M32.4796 8.58618L27.811 17.4988H41.5337L32.4796 8.58618Z" fill="#88F1FF"/>
<path d="M9.70257 8.58618L14.3711 17.4988H0.648438L9.70257 8.58618Z" fill="#C4FEFF"/>
<path d="M22.2932 0.805176H19.8882V5.75666H22.2932V0.805176Z" fill="#9CFDFF"/>
<path d="M27.8978 1.11688L25.936 5.81665L28.1554 6.74306L30.1172 2.04328L27.8978 1.11688Z" fill="#00F8FE"/>
<path d="M14.3058 1.2379L12.0864 2.16455L14.0487 6.86433L16.2681 5.93768L14.3058 1.2379Z" fill="#9CFDFF"/>
<path d="M27.8108 17.4988L21.0202 41.6903V41.2659L14.3711 17.4988H27.8108Z" fill="#88F1FF"/>
<path d="M22.1523 0.805176H21.0205V5.75666H22.1523V0.805176Z" fill="#00F8FE"/>
<path d="M27.9526 17.4988H27.8111L21.0205 41.6904V8.58618L27.9526 17.4988Z" fill="#C4FEFF"/>
<path d="M27.9526 17.4988H21.0205V8.58618L27.9526 17.4988Z" fill="#88F1FF"/>
</g>
<defs>
<clipPath id="clip0">
<rect width="40.8851" height="40.8851" fill="white" transform="translate(0.648438 0.805176)"/>
</clipPath>
</defs>
</svg>
