<svg width="47" height="42" viewBox="0 0 47 42" fill="none" xmlns="http://www.w3.org/2000/svg">
<g clip-path="url(#clip0)">
<path d="M35.9956 23.9248L25.577 8.45481C26.2084 7.66553 26.682 6.71838 26.682 5.61338C26.682 3.56123 24.7877 1.66694 23.6827 0.877655C23.367 0.56194 22.8934 0.56194 22.5777 0.877655C21.6306 1.66694 19.5784 3.40337 19.5784 5.61338C19.5784 6.71838 20.2099 7.82338 20.8413 8.61267L10.2648 23.9248L1.8984 15.4005C1.26697 14.7691 0.319824 15.2427 0.319824 16.1898L2.37197 35.1327H44.2042L46.2563 16.1898C46.4142 15.4005 45.3092 14.927 44.6778 15.4005L35.9956 23.9248Z" fill="#F9E885"/>
<path d="M44.5197 15.4005L35.8376 23.9248L25.5768 8.45474C26.2083 7.66545 26.6818 6.71831 26.6818 5.61331C26.6818 3.56116 24.7876 1.66687 23.6826 0.877584C23.6826 0.719727 23.3668 0.719727 23.209 0.719727V34.9748H44.0462L46.0983 16.0319C46.2562 15.2426 45.1512 14.769 44.5197 15.4005Z" fill="#EDBE2C"/>
<path d="M2.37207 34.9749V40.1841C2.37207 40.9734 3.0035 41.6049 3.79279 41.6049H42.7836C43.5729 41.6049 44.2043 40.9734 44.2043 40.1841V34.9749H2.37207Z" fill="#EDBE2C"/>
<path d="M23.209 34.9749V41.6049H42.7833C43.5726 41.6049 44.204 40.9734 44.204 40.1841V34.9749H23.209Z" fill="#E69022"/>
<path d="M2.37187 34.9748H44.0462L44.3619 32.2913H2.05615L2.37187 34.9748Z" fill="#E69022"/>
<path d="M23.209 32.2913V34.9748H44.0462L44.3619 32.2913H23.209Z" fill="#D06618"/>
<path d="M26.5245 33.5542C26.5245 35.7642 24.3145 37.5006 23.5253 38.132C23.3674 38.2899 23.0517 38.2899 22.8938 38.132C22.1045 37.5006 19.8945 35.7642 19.8945 33.5542C19.8945 31.3442 22.1045 29.6077 22.8938 28.9763C23.0517 28.8184 23.3674 28.8184 23.5253 28.9763C24.3145 29.6077 26.5245 31.3442 26.5245 33.5542Z" fill="#C73C50"/>
<path d="M23.5247 28.9762C23.3668 28.9762 23.3668 28.8184 23.209 28.8184V38.1319C23.3668 38.1319 23.3668 38.1319 23.5247 37.9741C24.314 37.3427 26.524 35.6062 26.524 33.3962C26.524 31.3441 24.314 29.6076 23.5247 28.9762Z" fill="#952A3A"/>
</g>
<defs>
<clipPath id="clip0">
<rect width="45.7787" height="40.8851" fill="white" transform="translate(0.319824 0.719727)"/>
</clipPath>
</defs>
</svg>
