<svg width="47" height="42" viewBox="0 0 47 42" fill="none" xmlns="http://www.w3.org/2000/svg">
<g clip-path="url(#clip0)">
<path d="M36.2998 24.0105L25.8812 8.54051C26.5126 7.75122 26.9862 6.80407 26.9862 5.69907C26.9862 3.64693 25.0919 1.75264 23.9869 0.963349C23.6712 0.647634 23.1976 0.647634 22.8819 0.963349C21.9348 1.75264 19.8826 3.48907 19.8826 5.69907C19.8826 6.80407 20.5141 7.90908 21.1455 8.69836L10.569 24.0105L2.2026 15.4862C1.57117 14.8548 0.624023 15.3284 0.624023 16.2755L2.67617 35.2184H44.5084L46.5605 16.2755C46.7184 15.4862 45.6134 15.0127 44.982 15.4862L36.2998 24.0105Z" fill="#E5E4E2"/>
<path d="M44.8239 15.4859L36.1418 24.0102L25.881 8.54019C26.5125 7.7509 26.986 6.80376 26.986 5.69876C26.986 3.64661 25.0918 1.75232 23.9868 0.963033C23.9868 0.805176 23.671 0.805176 23.5132 0.805176V35.0602H44.3504L46.4025 16.1173C46.5604 15.3281 45.4554 14.8545 44.8239 15.4859Z" fill="#B9B9B9"/>
<path d="M2.67578 35.0603V40.2696C2.67578 41.0589 3.30721 41.6903 4.0965 41.6903H43.0873C43.8766 41.6903 44.508 41.0589 44.508 40.2696V35.0603H2.67578Z" fill="#B4B3B0"/>
<path d="M23.5132 35.0603V41.6903H43.0875C43.8768 41.6903 44.5082 41.0589 44.5082 40.2696V35.0603H23.5132Z" fill="#ACACAC"/>
<path d="M2.67655 35.0603H44.3509L44.6666 32.3767H2.36084L2.67655 35.0603Z" fill="#B1B1B1"/>
<path d="M23.5132 32.3767V35.0603H44.3504L44.6661 32.3767H23.5132Z" fill="#A5A4A3"/>
<path d="M26.8287 33.6396C26.8287 35.8496 24.6187 37.5861 23.8295 38.2175C23.6716 38.3753 23.3559 38.3753 23.198 38.2175C22.4087 37.5861 20.1987 35.8496 20.1987 33.6396C20.1987 31.4296 22.4087 29.6932 23.198 29.0618C23.3559 28.9039 23.6716 28.9039 23.8295 29.0618C24.6187 29.6932 26.8287 31.4296 26.8287 33.6396Z" fill="#A7A7A7"/>
<path d="M23.8289 29.0617C23.671 29.0617 23.671 28.9038 23.5132 28.9038V38.2174C23.671 38.2174 23.671 38.2174 23.8289 38.0595C24.6182 37.4281 26.8282 35.6917 26.8282 33.4817C26.8282 31.4295 24.6182 29.6931 23.8289 29.0617Z" fill="#969696"/>
</g>
<defs>
<clipPath id="clip0">
<rect width="45.7787" height="40.8851" fill="white" transform="translate(0.624023 0.805176)"/>
</clipPath>
</defs>
</svg>
