<svg width="47" height="42" viewBox="0 0 47 42" fill="none" xmlns="http://www.w3.org/2000/svg">
<g clip-path="url(#clip0)">
<path d="M36.2654 24.0567L25.9838 8.60777C26.6069 7.82752 27.0743 6.73517 27.0743 5.79887C27.0743 3.61417 25.0491 1.89763 24.1144 1.11738C23.8028 0.805276 23.3355 0.805276 23.0239 1.11738C22.0892 1.89763 20.064 3.77022 20.064 5.79887C20.064 6.89122 20.6872 7.98357 21.3103 8.76382L10.7171 24.0567L2.30481 15.474C1.68168 14.8498 0.591203 15.3179 0.746986 16.2542L2.77216 35.1363H44.3661L46.3913 16.2542C46.5471 15.474 45.4566 14.8498 44.8335 15.474L36.2654 24.0567Z" fill="#EFEDED"/>
<path d="M44.9892 15.4739L36.4212 24.0566L25.9837 8.60767C26.6068 7.82742 27.0742 6.73507 27.0742 5.79877C27.0742 3.61407 25.049 1.89753 24.1143 1.11728C23.9585 0.805176 23.8028 0.805176 23.647 0.805176V35.1362H44.3661L46.3913 16.2541C46.547 15.3178 45.4566 14.8497 44.9892 15.4739Z" fill="#E2E2E2"/>
<path d="M2.77197 35.1362V40.4419C2.77197 41.2222 3.3951 41.8464 4.17402 41.8464H43.1197C43.8986 41.8464 44.5217 41.2222 44.5217 40.4419V35.1362H2.77197Z" fill="#E5E5E5"/>
<path d="M23.647 35.1363V41.6904H43.1198C43.8987 41.6904 44.5219 41.0662 44.5219 40.2859V34.9802H23.647V35.1363Z" fill="#C6C6C6"/>
<path d="M2.77201 35.1362H44.366L44.6776 32.4834H2.46045L2.77201 35.1362Z" fill="#D3E3FD"/>
<path d="M23.647 32.4834V35.1362H44.3661L44.6776 32.4834H23.647Z" fill="#A0B3D3"/>
<path d="M26.9184 33.5756C26.9184 35.7603 24.7374 37.4768 23.9585 38.101C23.8027 38.2571 23.4911 38.2571 23.3354 38.101C22.5564 37.4768 20.3755 35.6042 20.3755 33.5756C20.3755 31.3909 22.5564 29.6743 23.3354 29.0501C23.4911 28.8941 23.8027 28.8941 23.9585 29.0501C24.7374 29.6743 26.9184 31.5469 26.9184 33.5756Z" fill="#C9EBFF"/>
<path d="M23.9585 29.0503C23.8028 29.0503 23.8028 28.8943 23.647 28.8943V38.2573C23.8028 38.2573 23.8028 38.2573 23.9585 38.1012C24.7375 37.477 26.9184 35.6044 26.9184 33.5758C26.9184 31.5471 24.7375 29.6745 23.9585 29.0503Z" fill="#9CC9E2"/>
</g>
<defs>
<clipPath id="clip0">
<rect width="45.6443" height="40.8851" fill="white" transform="translate(0.74707 0.805176)"/>
</clipPath>
</defs>
</svg>
